<svg xmlns="http://www.w3.org/2000/svg" xmlns:xlink="http://www.w3.org/1999/xlink" version="1.1" x="0px" y="0px" viewBox="0 0 90 112.5" enable-background="new 0 0 90 90" xml:space="preserve"><g><path d="M2.7,44.29c0-1.562,1.271-2.833,2.834-2.833h2.349v0.02h12.534v-1.7h-5.153c-0.063-0.24-0.104-0.482-0.104-0.728   c0-1.64,1.335-2.975,2.976-2.975h1.326l0.023,0.01h18.142v-1.7h-9.642c-0.021-0.143-0.077-0.301-0.077-0.435   c0-1.796,1.461-3.258,3.258-3.258H50.73c4.748,0,8.611,3.702,8.611,8.252h1.7c0-5.488-4.625-9.952-10.312-9.952H31.165   c-2.732,0-4.957,2.224-4.957,4.958c0,0.142,0.006,0.282,0.021,0.425h-8.095c-2.579,0-4.676,2.098-4.676,4.675   c0,0.238,0.019,0.475,0.055,0.708H5.534c-2.5,0-4.533,2.034-4.533,4.533c0,2.502,2.033,4.533,4.533,4.533h20.447v-1.699H5.534   C3.972,47.124,2.7,45.853,2.7,44.29z"/><path d="M84.466,41.174L51.749,41.18c-0.404-0.046-0.811-0.076-1.225-0.076H39.341c-5.686,0-10.311,4.464-10.311,9.952   s4.625,9.953,10.311,9.953h22.968c2.734,0,4.959-2.225,4.959-4.959c0-0.141-0.009-0.283-0.021-0.426h7.492   c2.578,0,4.675-2.096,4.675-4.676c0-0.236-0.018-0.473-0.055-0.707h5.107c2.5,0,4.533-2.033,4.533-4.533   S86.966,41.174,84.466,41.174z M84.72,48.515H71.674v1.701h5.934c0.064,0.242,0.106,0.488,0.106,0.732   c0,1.641-1.335,2.977-2.976,2.977h-3.735v-0.018H55.065v1.699h10.424c0.023,0.146,0.078,0.307,0.078,0.443   c0,1.795-1.463,3.258-3.259,3.258H39.341c-4.748,0-8.611-3.701-8.611-8.252c0-4.549,3.863-8.252,8.611-8.252h11.184   c0.35,0,0.691,0.026,1.129,0.07h32.813c1.562,0,2.834,1.271,2.834,2.834C87.3,47.185,86.162,48.386,84.72,48.515z"/></g><text x="0" y="105" fill="#000000" font-size="5px" font-weight="bold" font-family="'Helvetica Neue', Helvetica, Arial-Unicode, Arial, Sans-serif">Created by Gilad Sotil</text><text x="0" y="110" fill="#000000" font-size="5px" font-weight="bold" font-family="'Helvetica Neue', Helvetica, Arial-Unicode, Arial, Sans-serif">from the Noun Project</text></svg>