<?xml version="1.0"?>
<svg width="90" height="112.5" xmlns="http://www.w3.org/2000/svg" xmlns:svg="http://www.w3.org/2000/svg">
 <g>
  <title>Layer 1</title>
  <g id="svg_1">
   <path id="svg_2" d="m2.7,56.142559c0,-1.562 1.271,-2.833 2.834,-2.833l2.349,0l0,0.02l12.534,0l0,-1.7l-5.153,0c-0.063,-0.24 -0.104,-0.482 -0.104,-0.728c0,-1.64 1.335,-2.975 2.976,-2.975l1.326,0l0.023,0.01l18.142,0l0,-1.7l-9.642,0c-0.021,-0.143 -0.077,-0.301 -0.077,-0.435c0,-1.796 1.461,-3.258 3.258,-3.258l19.564,0c4.748,0 8.611,3.702 8.611,8.252l1.7,0c0,-5.488 -4.625,-9.952 -10.312,-9.952l-19.564,0c-2.732,0 -4.957,2.224 -4.957,4.958c0,0.142 0.006,0.282 0.021,0.425l-8.095,0c-2.579,0 -4.676,2.098 -4.676,4.675c0,0.238 0.019,0.475 0.055,0.708l-7.979,0c-2.5,0 -4.533,2.034 -4.533,4.533c0,2.502 2.033,4.533 4.533,4.533l20.447,0l0,-1.699l-20.447,0c-1.562,0 -2.834,-1.271 -2.834,-2.834z"/>
   <path id="svg_3" d="m84.466,53.026559l-32.717,0.006c-0.404,-0.046 -0.811,-0.076 -1.225,-0.076l-11.183,0c-5.686,0 -10.311,4.464 -10.311,9.952s4.625,9.953 10.311,9.953l22.968,0c2.734,0 4.959,-2.225 4.959,-4.959c0,-0.141 -0.009,-0.283 -0.021,-0.426l7.492,0c2.578,0 4.675,-2.096 4.675,-4.676c0,-0.236 -0.018,-0.473 -0.055,-0.707l5.107,0c2.5,0 4.533,-2.033 4.533,-4.533s-2.033,-4.534 -4.533,-4.534zm0.254,7.341l-13.046,0l0,1.701l5.934,0c0.064,0.242 0.106,0.488 0.106,0.732c0,1.641 -1.335,2.977 -2.976,2.977l-3.735,0l0,-0.018l-15.938,0l0,1.699l10.424,0c0.023,0.146 0.078,0.307 0.078,0.443c0,1.795 -1.463,3.258 -3.259,3.258l-22.967,0c-4.748,0 -8.611,-3.701 -8.611,-8.252c0,-4.549 3.863,-8.252 8.611,-8.252l11.184,0c0.35,0 0.691,0.026 1.129,0.07l32.813,0c1.562,0 2.834,1.271 2.834,2.834c-0.001,1.478 -1.139,2.679 -2.581,2.808z"/>
  </g>
 </g>
</svg>